<svg width="407" height="81" viewBox="0 0 407 81" fill="none" xmlns="http://www.w3.org/2000/svg">
<path d="M66.4 51C65.9341 52.0557 65.7951 53.2267 66.001 54.3621C66.2069 55.4974 66.7481 56.5451 67.555 57.37L67.765 57.58C68.4158 58.2301 68.9322 59.0021 69.2844 59.8519C69.6367 60.7017 69.818 61.6126 69.818 62.5325C69.818 63.4524 69.6367 64.3633 69.2844 65.2131C68.9322 66.0629 68.4158 66.8349 67.765 67.485C67.1149 68.1358 66.3429 68.6521 65.4931 69.0044C64.6433 69.3567 63.7324 69.538 62.8125 69.538C61.8926 69.538 60.9817 69.3567 60.1319 69.0044C59.2821 68.6521 58.5101 68.1358 57.86 67.485L57.65 67.275C56.8251 66.4681 55.7774 65.9268 54.6421 65.721C53.5067 65.5151 52.3357 65.6541 51.28 66.12C50.2448 66.5637 49.3619 67.3004 48.7401 68.2394C48.1182 69.1784 47.7845 70.2787 47.78 71.405V72C47.78 73.8565 47.0425 75.637 45.7297 76.9497C44.417 78.2625 42.6365 79 40.78 79C38.9235 79 37.143 78.2625 35.8303 76.9497C34.5175 75.637 33.78 73.8565 33.78 72V71.685C33.7529 70.5265 33.3779 69.403 32.7038 68.4604C32.0297 67.5179 31.0876 66.8 30 66.4C28.9443 65.9341 27.7733 65.7951 26.6379 66.001C25.5026 66.2069 24.4549 66.7481 23.63 67.555L23.42 67.765C22.7699 68.4158 21.9979 68.9322 21.1481 69.2844C20.2983 69.6367 19.3874 69.818 18.4675 69.818C17.5476 69.818 16.6367 69.6367 15.7869 69.2844C14.9371 68.9322 14.1651 68.4158 13.515 67.765C12.8642 67.1149 12.3479 66.3429 11.9956 65.4931C11.6433 64.6433 11.462 63.7324 11.462 62.8125C11.462 61.8926 11.6433 60.9817 11.9956 60.1319C12.3479 59.2821 12.8642 58.5101 13.515 57.86L13.725 57.65C14.5319 56.8251 15.0732 55.7774 15.279 54.6421C15.4849 53.5067 15.3459 52.3357 14.88 51.28C14.4363 50.2448 13.6996 49.3619 12.7606 48.7401C11.8216 48.1182 10.7213 47.7845 9.595 47.78H9C7.14348 47.78 5.36301 47.0425 4.05025 45.7297C2.7375 44.417 2 42.6365 2 40.78C2 38.9235 2.7375 37.143 4.05025 35.8303C5.36301 34.5175 7.14348 33.78 9 33.78H9.315C10.4735 33.7529 11.597 33.3779 12.5395 32.7038C13.4821 32.0297 14.2 31.0876 14.6 30C15.0659 28.9443 15.2049 27.7733 14.999 26.6379C14.7932 25.5026 14.2519 24.4549 13.445 23.63L13.235 23.42C12.5842 22.7699 12.0679 21.9979 11.7156 21.1481C11.3633 20.2983 11.182 19.3874 11.182 18.4675C11.182 17.5476 11.3633 16.6367 11.7156 15.7869C12.0679 14.9371 12.5842 14.1651 13.235 13.515C13.8851 12.8642 14.6571 12.3479 15.5069 11.9956C16.3567 11.6433 17.2676 11.462 18.1875 11.462C19.1074 11.462 20.0183 11.6433 20.8681 11.9956C21.7179 12.3479 22.4899 12.8642 23.14 13.515L23.35 13.725C24.1749 14.5319 25.2226 15.0731 26.3579 15.279C27.4933 15.4849 28.6643 15.3459 29.72 14.88H30C31.0352 14.4363 31.9181 13.6996 32.5399 12.7606C33.1618 11.8216 33.4955 10.7213 33.5 9.595V9C33.5 7.14348 34.2375 5.36301 35.5503 4.05025C36.863 2.7375 38.6435 2 40.5 2C42.3565 2 44.137 2.7375 45.4497 4.05025C46.7625 5.36301 47.5 7.14348 47.5 9V9.315C47.5045 10.4413 47.8382 11.5416 48.4601 12.4806C49.0819 13.4196 49.9648 14.1563 51 14.6C52.0557 15.0659 53.2267 15.2049 54.3621 14.999C55.4974 14.7931 56.5451 14.2519 57.37 13.445L57.58 13.235C58.2301 12.5842 59.0021 12.0679 59.8519 11.7156C60.7017 11.3633 61.6126 11.182 62.5325 11.182C63.4524 11.182 64.3633 11.3633 65.2131 11.7156C66.0629 12.0679 66.8349 12.5842 67.485 13.235C68.1358 13.8851 68.6522 14.6571 69.0044 15.5069C69.3567 16.3567 69.538 17.2676 69.538 18.1875C69.538 19.1074 69.3567 20.0183 69.0044 20.8681C68.6522 21.7179 68.1358 22.4899 67.485 23.14L67.275 23.35C66.4681 24.1749 65.9269 25.2226 65.721 26.3579C65.5151 27.4933 65.6541 28.6643 66.12 29.72V30C66.5637 31.0352 67.3004 31.9181 68.2394 32.5399C69.1784 33.1618 70.2787 33.4955 71.405 33.5H72C73.8565 33.5 75.637 34.2375 76.9497 35.5503C78.2625 36.863 79 38.6435 79 40.5C79 42.3565 78.2625 44.137 76.9497 45.4497C75.637 46.7625 73.8565 47.5 72 47.5H71.685C70.5587 47.5045 69.4584 47.8382 68.5194 48.4601C67.5804 49.0819 66.8437 49.9648 66.4 51Z" stroke="black" stroke-width="4" stroke-linecap="round" stroke-linejoin="round"/>
<path d="M110.72 59.385C108.153 59.385 105.843 58.945 103.79 58.065C101.737 57.1483 100.123 55.865 98.95 54.215C97.7767 52.565 97.19 50.64 97.19 48.44H103.9C104.047 50.09 104.688 51.4467 105.825 52.51C106.998 53.5733 108.63 54.105 110.72 54.105C112.883 54.105 114.57 53.5917 115.78 52.565C116.99 51.5017 117.595 50.145 117.595 48.495C117.595 47.2117 117.21 46.1667 116.44 45.36C115.707 44.5533 114.772 43.93 113.635 43.49C112.535 43.05 110.995 42.5733 109.015 42.06C106.522 41.4 104.487 40.74 102.91 40.08C101.37 39.3833 100.05 38.32 98.95 36.89C97.85 35.46 97.3 33.5533 97.3 31.17C97.3 28.97 97.85 27.045 98.95 25.395C100.05 23.745 101.59 22.48 103.57 21.6C105.55 20.72 107.842 20.28 110.445 20.28C114.148 20.28 117.173 21.215 119.52 23.085C121.903 24.9183 123.223 27.4483 123.48 30.675H116.55C116.44 29.2817 115.78 28.09 114.57 27.1C113.36 26.11 111.765 25.615 109.785 25.615C107.988 25.615 106.522 26.0733 105.385 26.99C104.248 27.9067 103.68 29.2267 103.68 30.95C103.68 32.1233 104.028 33.095 104.725 33.865C105.458 34.5983 106.375 35.185 107.475 35.625C108.575 36.065 110.078 36.5417 111.985 37.055C114.515 37.7517 116.568 38.4483 118.145 39.145C119.758 39.8417 121.115 40.9233 122.215 42.39C123.352 43.82 123.92 45.745 123.92 48.165C123.92 50.1083 123.388 51.9417 122.325 53.665C121.298 55.3883 119.777 56.7817 117.76 57.845C115.78 58.8717 113.433 59.385 110.72 59.385ZM143.308 43.875L157.278 59H148.808L137.588 45.965V59H131.318V18.3H137.588V41.95L148.588 28.695H157.278L143.308 43.875ZM189.052 28.695L170.462 73.245H163.972L170.132 58.505L158.197 28.695H165.182L173.707 51.795L182.562 28.695H189.052ZM224.309 20.775V59H218.039V42.28H200.054V59H193.784V20.775H200.054V37.165H218.039V20.775H224.309ZM235.753 24.68C234.617 24.68 233.663 24.295 232.893 23.525C232.123 22.755 231.738 21.8017 231.738 20.665C231.738 19.5283 232.123 18.575 232.893 17.805C233.663 17.035 234.617 16.65 235.753 16.65C236.853 16.65 237.788 17.035 238.558 17.805C239.328 18.575 239.713 19.5283 239.713 20.665C239.713 21.8017 239.328 22.755 238.558 23.525C237.788 24.295 236.853 24.68 235.753 24.68ZM238.833 28.695V59H232.563V28.695H238.833ZM259.275 28.2C261.622 28.2 263.694 28.6767 265.49 29.63C267.324 30.5467 268.754 31.7017 269.78 33.095V28.695H276.105V59.495C276.105 62.2817 275.519 64.7567 274.345 66.92C273.172 69.12 271.467 70.8433 269.23 72.09C267.03 73.3367 264.39 73.96 261.31 73.96C257.204 73.96 253.794 72.9883 251.08 71.045C248.367 69.1383 246.827 66.535 246.46 63.235H252.675C253.152 64.8117 254.16 66.0767 255.7 67.03C257.277 68.02 259.147 68.515 261.31 68.515C263.84 68.515 265.875 67.745 267.415 66.205C268.992 64.665 269.78 62.4283 269.78 59.495V54.435C268.717 55.865 267.269 57.075 265.435 58.065C263.639 59.0183 261.585 59.495 259.275 59.495C256.635 59.495 254.215 58.835 252.015 57.515C249.852 56.1583 248.129 54.2883 246.845 51.905C245.599 49.485 244.975 46.7533 244.975 43.71C244.975 40.6667 245.599 37.9717 246.845 35.625C248.129 33.2783 249.852 31.4633 252.015 30.18C254.215 28.86 256.635 28.2 259.275 28.2ZM269.78 43.82C269.78 41.73 269.34 39.915 268.46 38.375C267.617 36.835 266.499 35.6617 265.105 34.855C263.712 34.0483 262.209 33.645 260.595 33.645C258.982 33.645 257.479 34.0483 256.085 34.855C254.692 35.625 253.555 36.78 252.675 38.32C251.832 39.8233 251.41 41.62 251.41 43.71C251.41 45.8 251.832 47.6333 252.675 49.21C253.555 50.7867 254.692 51.9967 256.085 52.84C257.515 53.6467 259.019 54.05 260.595 54.05C262.209 54.05 263.712 53.6467 265.105 52.84C266.499 52.0333 267.617 50.86 268.46 49.32C269.34 47.7433 269.78 45.91 269.78 43.82ZM300.016 28.2C302.326 28.2 304.379 28.695 306.176 29.685C308.009 30.675 309.439 32.1417 310.466 34.085C311.529 36.0283 312.061 38.375 312.061 41.125V59H305.846V42.06C305.846 39.3467 305.167 37.275 303.811 35.845C302.454 34.3783 300.602 33.645 298.256 33.645C295.909 33.645 294.039 34.3783 292.646 35.845C291.289 37.275 290.611 39.3467 290.611 42.06V59H284.341V18.3H290.611V32.215C291.674 30.9317 293.012 29.9417 294.626 29.245C296.276 28.5483 298.072 28.2 300.016 28.2ZM357.391 51.19H341.386L338.636 59H332.091L345.786 20.72H353.046L366.741 59H360.141L357.391 51.19ZM355.631 46.075L349.416 28.31L343.146 46.075H355.631ZM370.605 43.71C370.605 40.6667 371.229 37.9717 372.475 35.625C373.759 33.2783 375.482 31.4633 377.645 30.18C379.845 28.86 382.284 28.2 384.96 28.2C386.94 28.2 388.884 28.64 390.79 29.52C392.734 30.3633 394.274 31.5 395.41 32.93V18.3H401.735V59H395.41V54.435C394.384 55.9017 392.954 57.1117 391.12 58.065C389.324 59.0183 387.252 59.495 384.905 59.495C382.265 59.495 379.845 58.835 377.645 57.515C375.482 56.1583 373.759 54.2883 372.475 51.905C371.229 49.485 370.605 46.7533 370.605 43.71ZM395.41 43.82C395.41 41.73 394.97 39.915 394.09 38.375C393.247 36.835 392.129 35.6617 390.735 34.855C389.342 34.0483 387.839 33.645 386.225 33.645C384.612 33.645 383.109 34.0483 381.715 34.855C380.322 35.625 379.185 36.78 378.305 38.32C377.462 39.8233 377.04 41.62 377.04 43.71C377.04 45.8 377.462 47.6333 378.305 49.21C379.185 50.7867 380.322 51.9967 381.715 52.84C383.145 53.6467 384.649 54.05 386.225 54.05C387.839 54.05 389.342 53.6467 390.735 52.84C392.129 52.0333 393.247 50.86 394.09 49.32C394.97 47.7433 395.41 45.91 395.41 43.82ZM421.686 53.39L430.266 28.695H436.921L425.371 59H417.891L406.396 28.695H413.106L421.686 53.39ZM469.435 43.105C469.435 44.2417 469.362 45.2683 469.215 46.185H446.06C446.243 48.605 447.142 50.5483 448.755 52.015C450.368 53.4817 452.348 54.215 454.695 54.215C458.068 54.215 460.452 52.8033 461.845 49.98H468.61C467.693 52.7667 466.025 55.0583 463.605 56.855C461.222 58.615 458.252 59.495 454.695 59.495C451.798 59.495 449.195 58.8533 446.885 57.57C444.612 56.25 442.815 54.4167 441.495 52.07C440.212 49.6867 439.57 46.9367 439.57 43.82C439.57 40.7033 440.193 37.9717 441.44 35.625C442.723 33.2417 444.502 31.4083 446.775 30.125C449.085 28.8417 451.725 28.2 454.695 28.2C457.555 28.2 460.103 28.8233 462.34 30.07C464.577 31.3167 466.318 33.0767 467.565 35.35C468.812 37.5867 469.435 40.1717 469.435 43.105ZM462.89 41.125C462.853 38.815 462.028 36.9633 460.415 35.57C458.802 34.1767 456.803 33.48 454.42 33.48C452.257 33.48 450.405 34.1767 448.865 35.57C447.325 36.9267 446.408 38.7783 446.115 41.125H462.89ZM490.895 28.2C493.279 28.2 495.405 28.695 497.275 29.685C499.182 30.675 500.667 32.1417 501.73 34.085C502.794 36.0283 503.325 38.375 503.325 41.125V59H497.11V42.06C497.11 39.3467 496.432 37.275 495.075 35.845C493.719 34.3783 491.867 33.645 489.52 33.645C487.174 33.645 485.304 34.3783 483.91 35.845C482.554 37.275 481.875 39.3467 481.875 42.06V59H475.605V28.695H481.875V32.16C482.902 30.9133 484.204 29.9417 485.78 29.245C487.394 28.5483 489.099 28.2 490.895 28.2ZM518.638 33.81V50.585C518.638 51.7217 518.895 52.5467 519.408 53.06C519.958 53.5367 520.875 53.775 522.158 53.775H526.008V59H521.058C518.235 59 516.072 58.34 514.568 57.02C513.065 55.7 512.313 53.555 512.313 50.585V33.81H508.738V28.695H512.313V21.16H518.638V28.695H526.008V33.81H518.638ZM559.232 28.695V59H552.962V55.425C551.972 56.6717 550.67 57.6617 549.057 58.395C547.48 59.0917 545.794 59.44 543.997 59.44C541.614 59.44 539.469 58.945 537.562 57.955C535.692 56.965 534.207 55.4983 533.107 53.555C532.044 51.6117 531.512 49.265 531.512 46.515V28.695H537.727V45.58C537.727 48.2933 538.405 50.3833 539.762 51.85C541.119 53.28 542.97 53.995 545.317 53.995C547.664 53.995 549.515 53.28 550.872 51.85C552.265 50.3833 552.962 48.2933 552.962 45.58V28.695H559.232ZM573.775 33.095C574.692 31.555 575.902 30.3633 577.405 29.52C578.945 28.64 580.76 28.2 582.85 28.2V34.69H581.255C578.798 34.69 576.928 35.3133 575.645 36.56C574.398 37.8067 573.775 39.97 573.775 43.05V59H567.505V28.695H573.775V33.095ZM616.388 43.105C616.388 44.2417 616.315 45.2683 616.168 46.185H593.013C593.197 48.605 594.095 50.5483 595.708 52.015C597.322 53.4817 599.302 54.215 601.648 54.215C605.022 54.215 607.405 52.8033 608.798 49.98H615.563C614.647 52.7667 612.978 55.0583 610.558 56.855C608.175 58.615 605.205 59.495 601.648 59.495C598.752 59.495 596.148 58.8533 593.838 57.57C591.565 56.25 589.768 54.4167 588.448 52.07C587.165 49.6867 586.523 46.9367 586.523 43.82C586.523 40.7033 587.147 37.9717 588.393 35.625C589.677 33.2417 591.455 31.4083 593.728 30.125C596.038 28.8417 598.678 28.2 601.648 28.2C604.508 28.2 607.057 28.8233 609.293 30.07C611.53 31.3167 613.272 33.0767 614.518 35.35C615.765 37.5867 616.388 40.1717 616.388 43.105ZM609.843 41.125C609.807 38.815 608.982 36.9633 607.368 35.57C605.755 34.1767 603.757 33.48 601.373 33.48C599.21 33.48 597.358 34.1767 595.818 35.57C594.278 36.9267 593.362 38.7783 593.068 41.125H609.843Z" fill="black"/>
</svg>
